<svg xmlns="http://www.w3.org/2000/svg" viewBox="0 0 24 24"><path fill="#495057" fill-rule="evenodd" d="M19.436 3.5c.892 0 1.215.093 1.54.267.327.174.583.43.757.756.174.326.267.65.267 1.54v8.873c0 .892-.093 1.215-.267 1.54-.174.327-.43.583-.756.757-.326.174-.65.267-1.54.267H17v1h1a1 1 0 010 2H6a1 1 0 010-2h1v-1H4.564c-.892 0-1.215-.093-1.54-.267a1.817 1.817 0 01-.757-.756c-.16-.301-.252-.6-.265-1.345L2 6.064c0-.892.093-1.215.267-1.54.174-.327.43-.583.756-.757.301-.16.6-.252 1.345-.265L19.436 3.5zM15 17.5H9v1h6v-1zm4.565-12H4.435l-.212.007-.157.01-.044.005-.01.116L4 5.935v9.13l.006.212.01.157.005.043.116.011.297.011h15.13l.212-.006.157-.01.043-.006.011-.115.011-.297v-9.13l-.006-.212-.01-.157-.006-.044-.115-.01-.297-.011z"/></svg>