<svg xmlns="http://www.w3.org/2000/svg" viewBox="0 0 24 24"><path fill="#495057" fill-rule="nonzero" d="M20.436 2c.892 0 1.215.093 1.54.267.327.174.583.43.757.756.174.326.267.65.267 1.54v11.873c0 .892-.093 1.215-.267 1.54-.174.327-.43.583-.756.757-.326.174-.65.267-1.54.267H16v1h1a1 1 0 010 2H7a1 1 0 010-2h1v-1H3.564c-.892 0-1.215-.093-1.54-.267a1.817 1.817 0 01-.757-.756c-.16-.301-.252-.6-.265-1.345L1 4.564c0-.892.093-1.215.267-1.54.174-.327.43-.583.756-.757.301-.16.6-.252 1.345-.265L20.436 2zM14 19h-4v1h4v-1zm6.999-4H3v1.565l.007.212.01.157.005.043.116.011.297.011h17.13l.212-.006.157-.01.043-.006.011-.115.011-.297V15zm-.434-11H3.435l-.212.007-.157.01-.044.005-.01.116L3 4.435 3 13h17.999V4.435l-.006-.212-.01-.157-.006-.044-.115-.01L20.565 4z"/></svg>