<svg xmlns="http://www.w3.org/2000/svg" viewBox="0 0 24 24"><path fill="#495057" fill-rule="nonzero" d="M16.154 2c1.17 0 1.688.107 2.126.308l.185.093c.49.261.873.645 1.134 1.134l.093.185c.201.438.308.956.308 2.126v12.308c0 1.17-.107 1.688-.308 2.126l-.093.185a2.726 2.726 0 01-1.134 1.134l-.185.093c-.438.201-.956.308-2.126.308H7.846c-1.17 0-1.688-.107-2.126-.308l-.185-.093A2.726 2.726 0 014.4 20.465l-.093-.185c-.187-.407-.292-.882-.306-1.885L4 5.845c0-1.17.107-1.687.308-2.125l.093-.185A2.726 2.726 0 015.535 2.4l.185-.093C6.158 2.107 6.676 2 7.846 2h8.308zm.186 2H7.66l-.315.006-.248.012c-.22.015-.357.04-.467.079l-.103.043a.727.727 0 00-.362.338l-.025.049-.043.103a1.544 1.544 0 00-.07.364l-.016.22-.008.28L6 5.845V18.34l.006.315.012.248c.015.22.04.357.079.467l.043.103c.007.017.016.033.024.05.075.14.174.238.314.313l.049.024.103.043c.092.032.203.055.364.07l.22.016.28.008.352.003h8.494l.315-.006.248-.012c.22-.015.357-.04.467-.079l.103-.043c.017-.007.033-.016.05-.024a.727.727 0 00.313-.314l.024-.049.043-.103c.032-.092.055-.203.07-.364l.016-.22.008-.28.003-.352V5.66l-.006-.315-.012-.248a1.784 1.784 0 00-.079-.467l-.043-.103a.727.727 0 00-.338-.362l-.049-.025-.103-.043a1.544 1.544 0 00-.364-.07l-.22-.016-.28-.008L16.34 4zM12 17a1 1 0 110 2 1 1 0 010-2z"/></svg>