<svg xmlns="http://www.w3.org/2000/svg" viewBox="0 0 24 24"><path fill="#ADB5BD" fill-rule="nonzero" d="M12 2c5.523 0 10 4.477 10 10s-4.477 10-10 10S2 17.523 2 12 6.477 2 12 2zm0 2a8 8 0 100 16 8 8 0 000-16zm-.144 10.56c.454 0 .803.114 1.046.344.243.23.365.55.365.964 0 .414-.126.734-.378.962-.253.227-.597.34-1.033.34-.45 0-.802-.112-1.057-.337-.254-.225-.381-.546-.381-.965 0-.418.121-.74.364-.967.244-.228.601-.341 1.074-.341zm.389-7.669c1.013 0 1.808.223 2.385.668.577.446.866 1.052.866 1.82 0 .55-.128 1.026-.385 1.428-.257.402-.667.783-1.23 1.142-.478.31-.776.535-.897.678a.764.764 0 00-.18.508v.348H10.71v-.586l.007-.217a2.05 2.05 0 01.265-.912c.182-.306.505-.605.968-.896.369-.232.633-.44.795-.627a.95.95 0 00.242-.64.515.515 0 00-.26-.454c-.172-.111-.397-.167-.674-.167-.687 0-1.489.243-2.407.73L8.7 7.858l.284-.154a6.99 6.99 0 013.26-.814z"/></svg>