<svg xmlns="http://www.w3.org/2000/svg" viewBox="0 0 24 24"><path fill="#495057" fill-rule="nonzero" d="M17.144 4.002l.492.012c.918.036 1.454.146 1.896.322l.215.094a3.635 3.635 0 011.719 1.617c.036.068.071.136.104.206l.094.215c.176.442.286.978.322 1.896l.012.492.002.272v5.744l-.002.272-.012.492c-.036.918-.146 1.454-.322 1.896l-.094.215a3.635 3.635 0 01-1.617 1.719 4.727 4.727 0 01-.206.104l-.215.094c-.442.176-.978.286-1.896.322l-.492.012-.133.002H7.128l-.272-.002-.492-.012c-.918-.036-1.454-.146-1.896-.322l-.215-.094a4.727 4.727 0 01-.207-.104 3.635 3.635 0 01-1.512-1.512 4.727 4.727 0 01-.104-.207l-.094-.215c-.176-.442-.286-.978-.322-1.896l-.012-.492A23.306 23.306 0 012 14.872l.002-6.016.012-.492c.036-.918.146-1.454.322-1.896l.094-.215a3.635 3.635 0 011.617-1.719c.068-.036.136-.071.206-.104l.215-.094c.442-.176.978-.286 1.896-.322l.492-.012h10.288zM15 6H6.89l-.416.008-.346.016c-.472.03-.744.093-.983.197l-.155.076c-.304.162-.53.388-.692.692l-.076.155c-.104.239-.166.511-.197.983l-.016.346L4 8.89v6.22l.008.416.016.346c.03.472.093.744.197.983l.076.155c.162.304.388.53.692.692l.155.076c.239.104.511.166.983.197l.346.016.416.008H15V6z"/></svg>