<svg xmlns="http://www.w3.org/2000/svg" viewBox="0 0 36 99"><path fill="#F08C00" fill-rule="nonzero" d="M22.248 94.09l1.717 1.024c-.453.76-.918 1.52-1.397 2.282l-.727 1.145-1.682-1.082a119.231 119.231 0 002.089-3.37zm3.81-6.952l1.79.892c-.445.892-.908 1.786-1.389 2.683l-.486.897-1.754-.962a100.234 100.234 0 001.838-3.51zm3.218-7.237l1.863.727c-.363.93-.746 1.862-1.15 2.798l-.41.936-1.828-.814a84.133 84.133 0 001.525-3.647zm2.484-7.493l1.93.525a72.435 72.435 0 01-.857 2.91l-.317.974-1.898-.63c.421-1.266.802-2.526 1.142-3.779zm1.606-7.734l1.98.28a62.895 62.895 0 01-.5 3l-.202 1.006-1.958-.408c.271-1.3.498-2.592.68-3.878zm.57-7.813l2 .004a56.83 56.83 0 01-.09 3.049l-.066 1.02-1.994-.146c.097-1.316.147-2.625.15-3.927zm1.413-8.14c.149 1.007.27 2.018.361 3.033l.083 1.017-1.995.144c-.07-.98-.168-1.957-.293-2.93l-.135-.97 1.979-.294zm-1.802-7.981c.299.978.57 1.961.812 2.948l.234.989-1.951.441a53.033 53.033 0 00-.729-2.85l-.28-.944 1.914-.584zm-2.898-7.543c.432.931.839 1.866 1.218 2.805l.371.941-1.867.717c-.35-.91-.725-1.816-1.126-2.718l-.41-.902 1.814-.843zm-3.891-7.14c.545.87 1.067 1.745 1.564 2.623l.489.88-1.756.958a64.903 64.903 0 00-1.47-2.552l-.522-.847 1.695-1.062zm-4.689-6.636c.636.807 1.25 1.616 1.842 2.43l.584.814-1.632 1.156a75.982 75.982 0 00-1.752-2.375l-.612-.787 1.57-1.238zm-5.31-6.126a94.262 94.262 0 012.058 2.243l.66.751-1.51 1.311a90.266 90.266 0 00-1.975-2.2l-.684-.73 1.452-1.375zM0 0l15.282 3.387-3.821 4.706.503.461c.33.307.657.614.98.922l.96.924-1.395 1.432c-.622-.606-1.257-1.21-1.906-1.812l-.405-.371-3.739 4.608L0 0z"/></svg>