<svg xmlns="http://www.w3.org/2000/svg" id="Capa_1" data-name="Capa 1" viewBox="0 0 153.04 48"><defs><style>.cls-2{fill-rule:evenodd;fill:#fff3bf}.cls-4{fill:#343a40}</style></defs><g id="imago"><path id="bg" fill="#fcc419" fill-rule="evenodd" d="M19.67 3h8.66c5.8 0 7.9.6 10 1.74a11.74 11.74 0 014.91 4.91c1.14 2.12 1.74 4.22 1.74 10v8.66c0 5.8-.6 7.9-1.74 10a11.74 11.74 0 01-4.91 4.91c-2.1 1.18-4.2 1.78-10 1.78h-8.66c-5.8 0-7.9-.6-10-1.74a11.74 11.74 0 01-4.91-4.91C3.6 36.23 3 34.13 3 28.33v-8.66c0-5.8.6-7.9 1.74-10a11.74 11.74 0 014.91-4.93C11.77 3.6 13.87 3 19.67 3z"/><path id="column" d="M33.28 13h1.4a2.54 2.54 0 011.3.27 1.81 1.81 0 01.75.75 2.54 2.54 0 01.27 1.3v17.36a2.54 2.54 0 01-.27 1.3 1.81 1.81 0 01-.75.75 2.54 2.54 0 01-1.3.27h-1.4a1.54 1.54 0 01-.77-.13 1 1 0 01-.38-.38 1.54 1.54 0 01-.13-.77V14.28a1.54 1.54 0 01.13-.77 1 1 0 01.38-.38 1.54 1.54 0 01.77-.13z" class="cls-2"/><path id="column-2" d="M26.28 13h2.44a1.54 1.54 0 01.77.13 1 1 0 01.38.38 1.54 1.54 0 01.13.77v19.44a1.54 1.54 0 01-.13.77 1 1 0 01-.38.38 1.54 1.54 0 01-.77.13h-2.44a1.54 1.54 0 01-.77-.13 1 1 0 01-.38-.38 1.54 1.54 0 01-.13-.77V14.28a1.54 1.54 0 01.13-.77 1 1 0 01.38-.38 1.54 1.54 0 01.77-.13z" class="cls-2" data-name="column"/><path id="sidebar" fill="#fff" fill-rule="evenodd" d="M13.56 13h8.16a1.54 1.54 0 01.77.13 1 1 0 01.38.38 1.54 1.54 0 01.13.77v19.44a1.54 1.54 0 01-.13.77 1 1 0 01-.38.38 1.54 1.54 0 01-.77.13h-8.16a2.85 2.85 0 01-1.56-.27 1.81 1.81 0 01-.75-.75 2.85 2.85 0 01-.25-1.54V15.56a2.85 2.85 0 01.27-1.56 1.81 1.81 0 01.75-.75 2.85 2.85 0 011.54-.25z"/></g><path d="M66.59 26A6.36 6.36 0 1173 32.34 6.29 6.29 0 0166.59 26zm9.12 0a2.76 2.76 0 10-5.52 0 2.76 2.76 0 105.52 0zM81.35 14.48H85V32h-3.6zM98.94 20v12h-3.6v-1.13a4.11 4.11 0 01-3.43 1.47c-2.43 0-4.49-1.73-4.49-5V20H91v6.84A2 2 0 0093.11 29c1.32 0 2.23-.76 2.23-2.47V20zM119.58 24.63V32H116v-7.06c0-1.2-.58-2-1.73-2s-1.87.84-1.87 2.25V32h-3.6v-7.06c0-1.2-.58-2-1.73-2s-1.87.84-1.87 2.25V32h-3.6V20h3.6v1.1a3.69 3.69 0 013.21-1.44 3.57 3.57 0 013.15 1.59 4 4 0 013.44-1.59c2.78 0 4.58 1.97 4.58 4.97zM133.57 24.63V32H130v-6.84a2 2 0 00-2.12-2.16c-1.32 0-2.23.76-2.23 2.47V32h-3.6V20h3.6v1.13a4.11 4.11 0 013.43-1.47c2.43 0 4.49 1.73 4.49 4.97zM148.35 20v12h-3.6v-1.13a4.5 4.5 0 01-3.57 1.47c-3.15 0-5.74-2.76-5.74-6.34s2.59-6.34 5.74-6.34a4.47 4.47 0 013.57 1.47V20zm-3.6 6a2.86 2.86 0 10-5.75 0 2.86 2.86 0 105.71 0zM65.07 19v-3.8h-3.6V19a2.69 2.69 0 01-2.7 2.83H57.2V15.2h-3.84V32h3.84v-6.65h1.57a2.68 2.68 0 012.7 2.83V32h3.6v-3.82a6.29 6.29 0 00-1.93-4.58 6.29 6.29 0 001.93-4.6z" class="cls-4"/></svg>